PathFileType	4	(X/Y/Z)	C:\Users\WrightLab\Desktop\Jo\P3_7.trc
DataRate	CameraRate	NumFrames	NumMarkers	Units	OrigDataRate	OrigDataStartFrame	OrigNumFrames
100.00	100.00	       10	19	mm	100.00	361	       576
Frame#	Time	Headset_Front			Headset_Back			Headset_Left			Headset_Right			Left_Shoulder			Right_Shoulder			Sternum			C7			Left Elbow			Right Elbow			Left Wrist			Right Wrist			Left ASIS			Right ASIS			S2			Left Knee			Right Knee			Left Ankle			Right Ankle			
		X1	Y1	Z1	X2	Y2	Z2	X3	Y3	Z3	X4	Y4	Z4	X5	Y5	Z5	X6	Y6	Z6	X7	Y7	Z7	X8	Y8	Z8	X9	Y9	Z9	X10	Y10	Z10	X11	Y11	Z11	X12	Y12	Z12	X13	Y13	Z13	X14	Y14	Z14	X15	Y15	Z15	X16	Y16	Z16	X17	Y17	Z17	X18	Y18	Z18	X19	Y19	Z19	

361	3.600	44.06522	1499.86096	1400.08643	157.13303	1573.72192	1242.73608				-60.19821	1533.12427	1296.85547	245.96617	1348.96887	1166.11755	-111.25488	1341.22815	1177.46509	80.96183	1229.08301	1304.16479	56.22643	1393.28613	1119.77954	334.99490	1023.50275	1128.71460	-202.54544	998.80377	1192.01965	354.60004	833.81964	1220.64978	-172.79225	836.51129	1355.58301	183.97346	870.33405	1293.14990	-68.40080	862.01270	1265.09534	80.22746	945.59479	1067.07410	192.62515	477.67847	1373.57166	-18.36569	445.63657	1109.43738	195.79001	155.30916	1438.30884	16.90248	153.55930	936.41693	
362	3.610	45.37698	1499.84717	1409.05896							-58.31074	1532.83130	1305.56934	249.00835	1348.50513	1176.77832	-109.13313	1341.57227	1185.78809	82.24650	1229.70020	1314.25500	59.16926	1393.75610	1128.94446	336.65115	1021.84119	1141.20984	-199.68333	998.47412	1198.30481	355.03616	832.64874	1233.31384	-172.12144	835.42480	1360.59619	184.49963	870.82983	1306.11108	-67.48346	861.66907	1276.63513	82.13969	945.11249	1078.49109	193.95973	477.91772	1383.60779	-17.55531	444.98175	1120.33411	196.34956	153.68118	1443.07690	17.40455	156.62137	940.57379	
363	3.620	45.84350	1500.70166	1418.40271	160.13519	1571.57007	1255.78381				-57.46167	1533.95020	1314.14648	251.67723	1347.73975	1188.51367	-106.42709	1342.08691	1194.18262	83.73558	1230.78394	1324.82092	62.56949	1394.18323	1138.40894	338.63184	1020.88593	1153.84680	-197.71565	999.65161	1204.14258	354.77814	831.46576	1246.11462	-171.58336	834.57721	1365.41699	185.02278	870.95313	1316.95569	-66.13331	860.89117	1288.23987	82.98247	944.87885	1089.82434	195.84372	479.02759	1392.61755	-16.59526	444.60004	1132.72327	196.56396	152.41789	1447.17395	17.11046	159.96828	945.17273	
364	3.630	47.12867	1501.59583	1426.77356	161.82506	1576.32471	1272.67444				-55.96299	1534.63916	1322.71753	253.93230	1347.55115	1199.50586	-103.97318	1343.37354	1202.42627	85.36771	1231.62122	1334.69934	65.71149	1394.89783	1147.55933	340.78806	1020.62140	1168.36682	-194.94864	1000.43634	1209.86926	355.56723	830.89087	1259.92957	-170.88342	833.77008	1369.30054	186.42918	872.84363	1329.70752	-64.88621	860.79181	1299.91919	83.08656	945.45459	1100.85620	196.49065	480.20789	1401.92310	-16.26428	443.47241	1145.42004	196.99303	152.67755	1449.31384	17.24944	163.63173	950.36267	
365	3.640	47.43387	1503.10010	1436.60913	163.98462	1578.09192	1282.69299				-54.34191	1535.68774	1331.17737	256.86316	1348.97742	1209.98254	-101.73487	1345.20276	1210.66516	86.70862	1233.19165	1344.98889	67.73608	1395.92505	1157.03271	342.31073	1020.98560	1181.67981	-192.30093	1002.31073	1215.66101	356.06250	830.24493	1272.82971	-170.23064	833.62469	1373.45081	187.60652	875.37036	1340.68457	-63.26900	860.87439	1311.88074	83.44193	946.52185	1113.10193	197.98529	481.57788	1411.92944	-16.00952	442.60614	1160.17554	198.24562	152.39494	1453.12317	17.15691	167.79808	957.14594	
366	3.650	47.52919	1504.69104	1446.58948	165.47203	1580.38000	1294.50452				-53.11714	1536.83960	1339.73364	258.96719	1349.33325	1220.83350	-99.28691	1347.22339	1219.09375	87.88225	1235.20349	1354.71729	71.57489	1397.39526	1166.29834	343.79153	1021.22339	1195.73364	-188.48471	1004.27100	1218.43591	355.81564	831.41925	1286.46411	-169.90099	833.92755	1376.60913	189.00438	877.90778	1351.85242	-61.39682	864.67548	1330.08301	82.61700	947.76923	1124.08105	199.53226	482.33023	1420.53223	-17.44468	442.49875	1176.00110	198.15305	153.01985	1455.84656	16.62654	172.20004	964.97064	
367	3.660	48.02100	1506.39587	1455.21399	167.08208	1582.61389	1305.63196				-51.77443	1538.33606	1348.09851	261.25650	1350.38940	1231.65210	-97.16286	1349.76318	1227.57251	88.98132	1237.74500	1364.63257	73.73106	1399.65894	1174.99670	344.95071	1021.79004	1208.62732	-185.15453	1006.31842	1226.33020	355.25232	831.50671	1300.31470	-169.09557	834.34229	1380.09717	190.36349	880.94061	1362.47095	-59.82428	865.43652	1340.77356	82.50163	949.46497	1135.44495	199.70020	483.60590	1428.14514	-18.03412	441.17953	1193.51819	198.93163	153.54515	1458.21558	16.57536	177.36682	974.46924	
368	3.670	48.05391	1508.36755	1465.43225	168.70534	1584.57898	1315.73572				-50.90910	1540.26990	1356.47668	262.79373	1351.93750	1242.80676	-95.24876	1352.78662	1235.92102	89.64449	1240.29065	1374.68823	76.51947	1401.11340	1185.10193	346.02313	1023.21442	1222.37024	-182.01421	1009.69257	1230.81580	355.56940	833.10480	1314.37024	-168.67308	835.40881	1383.58545	191.52344	884.75330	1373.04797	-57.94186	867.30072	1352.04126	81.73317	951.79218	1145.00232	201.74297	484.80838	1436.02283	-18.65195	439.59940	1211.35522	199.30322	153.37065	1460.19446	15.93872	182.20547	984.64294	
369	3.680	48.46706	1510.16077	1474.30383	170.09337	1586.84314	1325.55176				-49.66209	1541.77234	1364.83960	265.00153	1353.77307	1251.90833	-93.37966	1355.79272	1244.35168	90.84818	1242.59497	1384.22949	78.91800	1402.92126	1193.88074	347.57761	1024.67114	1235.08691	-178.85373	1013.35315	1235.27283	354.53458	834.99237	1328.20337	-168.58643	836.82074	1387.18823	192.87370	888.57227	1384.27563	-56.06944	869.21387	1362.80798	81.16996	952.96906	1157.42688	202.21152	485.30072	1441.81506	-19.76872	438.91150	1230.68091	199.46909	153.70819	1462.21924	15.88686	187.50697	996.93640	
370	3.690	48.37392	1511.88184	1483.37646	171.77878	1588.68005	1334.56262				-48.91331	1543.23718	1373.10352	266.31787	1355.22058	1262.91345	-91.67393	1358.70422	1252.77710	91.11501	1245.64404	1393.88672	81.27209	1404.69897	1202.72205	347.95840	1026.47839	1247.68433	-176.00346	1015.80151	1241.02966	354.74341	836.80066	1343.05774	-168.42014	838.23419	1390.63123	194.26520	891.75262	1393.61658	-54.49541	871.80145	1373.05286	81.77394	954.62408	1165.81567	202.99026	485.83063	1447.78088	-20.59994	437.71399	1249.41919	199.52031	153.79723	1463.49072	15.82170	194.04660	1008.42761	
